<svg xmlns="http://www.w3.org/2000/svg" viewBox="0 0 200 240" fill="none">
  <!-- Flame shape -->
  <path d="M100 10
    C100 10 145 55 148 100
    C150 125 140 145 125 155
    C130 135 125 120 115 110
    C118 130 110 148 100 160
    C90 148 82 130 85 110
    C75 120 70 135 75 155
    C60 145 50 125 52 100
    C55 55 100 10 100 10Z"
    fill="#1E7EC8"/>
  <!-- Inner flame highlight -->
  <path d="M100 50
    C100 50 122 78 123 103
    C124 118 118 130 110 138
    C112 122 108 112 103 106
    C104 116 101 126 97 132
    C93 126 90 116 91 106
    C86 112 82 122 84 138
    C76 130 70 118 71 103
    C72 78 100 50 100 50Z"
    fill="white" opacity="0.45"/>
  <!-- FLARE text -->
  <text x="100" y="210" font-family="'Arial Black', Arial, sans-serif" font-weight="900"
    font-size="52" fill="#1E7EC8" text-anchor="middle" letter-spacing="2">FLARE</text>
</svg>
